<mxfile host="app.diagrams.net" agent="Mozilla/5.0 (Windows NT 10.0; Win64; x64) AppleWebKit/537.36 (KHTML, like Gecko) Chrome/131.0.0.0 Safari/537.36" version="25.0.1">
  <diagram name="Page-1" id="D9QqBmWP0lC2TitBE40p">
    <mxGraphModel dx="2068" dy="840" grid="1" gridSize="10" guides="1" tooltips="1" connect="1" arrows="1" fold="1" page="1" pageScale="1" pageWidth="827" pageHeight="1169" math="0" shadow="0">
      <root>
        <mxCell id="0" />
        <mxCell id="1" parent="0" />
        <mxCell id="MdXv1QtugfvZiQjqGfBJ-2" value="stimulusID" style="rounded=0;whiteSpace=wrap;html=1;fontStyle=4;fontSize=15;fillColor=#b0e3e6;strokeColor=#0e8088;" parent="1" vertex="1">
          <mxGeometry x="80" y="260" width="120" height="40" as="geometry" />
        </mxCell>
        <mxCell id="MdXv1QtugfvZiQjqGfBJ-3" value="type" style="rounded=0;whiteSpace=wrap;html=1;fontSize=15;fillColor=#b0e3e6;strokeColor=#0e8088;" parent="1" vertex="1">
          <mxGeometry x="200" y="260" width="120" height="40" as="geometry" />
        </mxCell>
        <mxCell id="MdXv1QtugfvZiQjqGfBJ-5" value="name" style="rounded=0;whiteSpace=wrap;html=1;fontSize=15;fillColor=#b0e3e6;strokeColor=#0e8088;" parent="1" vertex="1">
          <mxGeometry x="320" y="260" width="120" height="40" as="geometry" />
        </mxCell>
        <mxCell id="MdXv1QtugfvZiQjqGfBJ-6" value="description" style="rounded=0;whiteSpace=wrap;html=1;fontSize=15;fillColor=#b0e3e6;strokeColor=#0e8088;" parent="1" vertex="1">
          <mxGeometry x="440" y="260" width="120" height="40" as="geometry" />
        </mxCell>
        <mxCell id="MdXv1QtugfvZiQjqGfBJ-7" value="&lt;b&gt;&lt;font style=&quot;font-size: 20px;&quot;&gt;Stimuli&lt;/font&gt;&lt;/b&gt;" style="text;html=1;align=center;verticalAlign=middle;resizable=0;points=[];autosize=1;strokeColor=none;fillColor=none;" parent="1" vertex="1">
          <mxGeometry x="70" y="220" width="90" height="40" as="geometry" />
        </mxCell>
        <mxCell id="MdXv1QtugfvZiQjqGfBJ-8" value="subjectID" style="rounded=0;whiteSpace=wrap;html=1;fontStyle=4;fontSize=15;fillColor=#b0e3e6;strokeColor=#0e8088;" parent="1" vertex="1">
          <mxGeometry x="80" y="360" width="120" height="40" as="geometry" />
        </mxCell>
        <mxCell id="MdXv1QtugfvZiQjqGfBJ-9" value="species" style="rounded=0;whiteSpace=wrap;html=1;fontSize=15;fillColor=#b0e3e6;strokeColor=#0e8088;" parent="1" vertex="1">
          <mxGeometry x="200" y="360" width="120" height="40" as="geometry" />
        </mxCell>
        <mxCell id="MdXv1QtugfvZiQjqGfBJ-10" value="age" style="rounded=0;whiteSpace=wrap;html=1;fontSize=15;fillColor=#b0e3e6;strokeColor=#0e8088;" parent="1" vertex="1">
          <mxGeometry x="320" y="360" width="120" height="40" as="geometry" />
        </mxCell>
        <mxCell id="MdXv1QtugfvZiQjqGfBJ-11" value="gender" style="rounded=0;whiteSpace=wrap;html=1;fontSize=15;fillColor=#b0e3e6;strokeColor=#0e8088;" parent="1" vertex="1">
          <mxGeometry x="440" y="360" width="120" height="40" as="geometry" />
        </mxCell>
        <mxCell id="MdXv1QtugfvZiQjqGfBJ-12" value="&lt;b&gt;&lt;font style=&quot;font-size: 20px;&quot;&gt;Subjects&lt;/font&gt;&lt;/b&gt;" style="text;html=1;align=center;verticalAlign=middle;resizable=0;points=[];autosize=1;strokeColor=none;fillColor=none;" parent="1" vertex="1">
          <mxGeometry x="60" y="320" width="110" height="40" as="geometry" />
        </mxCell>
        <mxCell id="MdXv1QtugfvZiQjqGfBJ-13" value="regionID" style="rounded=0;whiteSpace=wrap;html=1;fontStyle=4;fontSize=15;fillColor=#b0e3e6;strokeColor=#0e8088;" parent="1" vertex="1">
          <mxGeometry x="350" y="650" width="120" height="40" as="geometry" />
        </mxCell>
        <mxCell id="MdXv1QtugfvZiQjqGfBJ-14" value="regionName" style="rounded=0;whiteSpace=wrap;html=1;fontSize=15;fillColor=#b0e3e6;strokeColor=#0e8088;" parent="1" vertex="1">
          <mxGeometry x="470" y="650" width="120" height="40" as="geometry" />
        </mxCell>
        <mxCell id="MdXv1QtugfvZiQjqGfBJ-15" value="function" style="rounded=0;whiteSpace=wrap;html=1;fontSize=15;fillColor=#b0e3e6;strokeColor=#0e8088;" parent="1" vertex="1">
          <mxGeometry x="590" y="650" width="120" height="40" as="geometry" />
        </mxCell>
        <mxCell id="MdXv1QtugfvZiQjqGfBJ-16" value="description" style="rounded=0;whiteSpace=wrap;html=1;fontSize=15;fillColor=#b0e3e6;strokeColor=#0e8088;" parent="1" vertex="1">
          <mxGeometry x="710" y="650" width="120" height="40" as="geometry" />
        </mxCell>
        <mxCell id="MdXv1QtugfvZiQjqGfBJ-17" value="&lt;b&gt;&lt;font style=&quot;font-size: 20px;&quot;&gt;BrainRegions&lt;/font&gt;&lt;/b&gt;" style="text;html=1;align=center;verticalAlign=middle;resizable=0;points=[];autosize=1;strokeColor=none;fillColor=none;" parent="1" vertex="1">
          <mxGeometry x="310" y="610" width="150" height="40" as="geometry" />
        </mxCell>
        <mxCell id="MdXv1QtugfvZiQjqGfBJ-18" value="neuronID" style="rounded=0;whiteSpace=wrap;html=1;fontStyle=4;fontSize=15;fillColor=#b0e3e6;strokeColor=#0e8088;" parent="1" vertex="1">
          <mxGeometry x="350" y="740" width="120" height="40" as="geometry" />
        </mxCell>
        <mxCell id="MdXv1QtugfvZiQjqGfBJ-52" style="edgeStyle=orthogonalEdgeStyle;rounded=1;orthogonalLoop=1;jettySize=auto;html=1;exitX=0.5;exitY=0;exitDx=0;exitDy=0;entryX=0.5;entryY=1;entryDx=0;entryDy=0;curved=0;strokeWidth=2;fontSize=15;fillColor=#647687;strokeColor=#314354;" parent="1" source="MdXv1QtugfvZiQjqGfBJ-19" target="MdXv1QtugfvZiQjqGfBJ-13" edge="1">
          <mxGeometry relative="1" as="geometry">
            <Array as="points">
              <mxPoint x="530" y="710" />
              <mxPoint x="410" y="710" />
            </Array>
          </mxGeometry>
        </mxCell>
        <mxCell id="MdXv1QtugfvZiQjqGfBJ-19" value="regionID" style="rounded=0;whiteSpace=wrap;html=1;fontSize=15;fillColor=#b0e3e6;strokeColor=#0e8088;" parent="1" vertex="1">
          <mxGeometry x="470" y="740" width="120" height="40" as="geometry" />
        </mxCell>
        <mxCell id="MdXv1QtugfvZiQjqGfBJ-20" value="type" style="rounded=0;whiteSpace=wrap;html=1;fontSize=15;fillColor=#b0e3e6;strokeColor=#0e8088;" parent="1" vertex="1">
          <mxGeometry x="590" y="740" width="120" height="40" as="geometry" />
        </mxCell>
        <mxCell id="MdXv1QtugfvZiQjqGfBJ-21" value="thresholdPotential" style="rounded=0;whiteSpace=wrap;html=1;fontSize=15;fillColor=#b0e3e6;strokeColor=#0e8088;" parent="1" vertex="1">
          <mxGeometry x="710" y="740" width="140" height="40" as="geometry" />
        </mxCell>
        <mxCell id="MdXv1QtugfvZiQjqGfBJ-22" value="&lt;b&gt;&lt;font style=&quot;font-size: 20px;&quot;&gt;Neurons&lt;/font&gt;&lt;/b&gt;" style="text;html=1;align=center;verticalAlign=middle;resizable=0;points=[];autosize=1;strokeColor=none;fillColor=none;" parent="1" vertex="1">
          <mxGeometry x="335" y="700" width="100" height="40" as="geometry" />
        </mxCell>
        <mxCell id="MdXv1QtugfvZiQjqGfBJ-23" value="intensityOrDose" style="rounded=0;whiteSpace=wrap;html=1;fontSize=15;fillColor=#b0e3e6;strokeColor=#0e8088;" parent="1" vertex="1">
          <mxGeometry x="560" y="260" width="120" height="40" as="geometry" />
        </mxCell>
        <mxCell id="MdXv1QtugfvZiQjqGfBJ-25" value="experimentID" style="rounded=0;whiteSpace=wrap;html=1;fontStyle=4;fontSize=15;fillColor=#b0e3e6;strokeColor=#0e8088;" parent="1" vertex="1">
          <mxGeometry x="80" y="450" width="120" height="40" as="geometry" />
        </mxCell>
        <mxCell id="MdXv1QtugfvZiQjqGfBJ-54" style="edgeStyle=orthogonalEdgeStyle;rounded=1;orthogonalLoop=1;jettySize=auto;html=1;exitX=0.5;exitY=0;exitDx=0;exitDy=0;entryX=0.5;entryY=1;entryDx=0;entryDy=0;curved=0;strokeWidth=2;fontSize=15;fillColor=#647687;strokeColor=#314354;" parent="1" source="MdXv1QtugfvZiQjqGfBJ-26" target="MdXv1QtugfvZiQjqGfBJ-8" edge="1">
          <mxGeometry relative="1" as="geometry">
            <Array as="points">
              <mxPoint x="260" y="420" />
              <mxPoint x="140" y="420" />
            </Array>
          </mxGeometry>
        </mxCell>
        <mxCell id="MdXv1QtugfvZiQjqGfBJ-26" value="subjectID" style="rounded=0;whiteSpace=wrap;html=1;fontSize=15;fillColor=#b0e3e6;strokeColor=#0e8088;" parent="1" vertex="1">
          <mxGeometry x="200" y="450" width="120" height="40" as="geometry" />
        </mxCell>
        <mxCell id="MdXv1QtugfvZiQjqGfBJ-53" style="edgeStyle=orthogonalEdgeStyle;rounded=1;orthogonalLoop=1;jettySize=auto;html=1;exitX=0.5;exitY=0;exitDx=0;exitDy=0;entryX=0;entryY=0.5;entryDx=0;entryDy=0;curved=0;strokeWidth=2;fontSize=15;fillColor=#647687;strokeColor=#314354;" parent="1" source="MdXv1QtugfvZiQjqGfBJ-27" target="MdXv1QtugfvZiQjqGfBJ-2" edge="1">
          <mxGeometry relative="1" as="geometry">
            <Array as="points">
              <mxPoint x="380" y="430" />
              <mxPoint x="610" y="430" />
              <mxPoint x="610" y="320" />
              <mxPoint x="40" y="320" />
              <mxPoint x="40" y="280" />
            </Array>
          </mxGeometry>
        </mxCell>
        <mxCell id="MdXv1QtugfvZiQjqGfBJ-27" value="stimulusID" style="rounded=0;whiteSpace=wrap;html=1;fontSize=15;fillColor=#b0e3e6;strokeColor=#0e8088;" parent="1" vertex="1">
          <mxGeometry x="320" y="450" width="120" height="40" as="geometry" />
        </mxCell>
        <mxCell id="MdXv1QtugfvZiQjqGfBJ-28" value="dateTime" style="rounded=0;whiteSpace=wrap;html=1;fontSize=15;fillColor=#b0e3e6;strokeColor=#0e8088;" parent="1" vertex="1">
          <mxGeometry x="440" y="450" width="120" height="40" as="geometry" />
        </mxCell>
        <mxCell id="MdXv1QtugfvZiQjqGfBJ-29" value="&lt;b&gt;&lt;font style=&quot;font-size: 20px;&quot;&gt;Experiments&lt;/font&gt;&lt;/b&gt;" style="text;html=1;align=center;verticalAlign=middle;resizable=0;points=[];autosize=1;strokeColor=none;fillColor=none;" parent="1" vertex="1">
          <mxGeometry x="45" y="410" width="140" height="40" as="geometry" />
        </mxCell>
        <mxCell id="MdXv1QtugfvZiQjqGfBJ-30" value="observation" style="rounded=0;whiteSpace=wrap;html=1;fontSize=15;fillColor=#b0e3e6;strokeColor=#0e8088;" parent="1" vertex="1">
          <mxGeometry x="560" y="450" width="120" height="40" as="geometry" />
        </mxCell>
        <mxCell id="MdXv1QtugfvZiQjqGfBJ-31" value="synapseID" style="rounded=0;whiteSpace=wrap;html=1;fontStyle=4;fontSize=15;fillColor=#b0e3e6;strokeColor=#0e8088;" parent="1" vertex="1">
          <mxGeometry x="136" y="820" width="120" height="40" as="geometry" />
        </mxCell>
        <mxCell id="M3u_YWBxDQCRq34Ip7a4-1" style="edgeStyle=orthogonalEdgeStyle;rounded=1;orthogonalLoop=1;jettySize=auto;html=1;exitX=0.5;exitY=0;exitDx=0;exitDy=0;fillColor=#647687;strokeColor=#314354;strokeWidth=2;curved=0;" parent="1" source="MdXv1QtugfvZiQjqGfBJ-32" edge="1">
          <mxGeometry relative="1" as="geometry">
            <mxPoint x="410" y="780" as="targetPoint" />
          </mxGeometry>
        </mxCell>
        <mxCell id="MdXv1QtugfvZiQjqGfBJ-32" value="PreSynapticNeuronID" style="rounded=0;whiteSpace=wrap;html=1;fontSize=15;fillColor=#b0e3e6;strokeColor=#0e8088;" parent="1" vertex="1">
          <mxGeometry x="256" y="820" width="170" height="40" as="geometry" />
        </mxCell>
        <mxCell id="M3u_YWBxDQCRq34Ip7a4-2" style="edgeStyle=orthogonalEdgeStyle;rounded=1;orthogonalLoop=1;jettySize=auto;html=1;exitX=0.5;exitY=0;exitDx=0;exitDy=0;fillColor=#647687;strokeColor=#314354;strokeWidth=2;curved=0;" parent="1" source="MdXv1QtugfvZiQjqGfBJ-33" edge="1">
          <mxGeometry relative="1" as="geometry">
            <mxPoint x="410" y="780" as="targetPoint" />
          </mxGeometry>
        </mxCell>
        <mxCell id="MdXv1QtugfvZiQjqGfBJ-33" value="PostSynapticNeuronID" style="rounded=0;whiteSpace=wrap;html=1;fontSize=15;fillColor=#b0e3e6;strokeColor=#0e8088;" parent="1" vertex="1">
          <mxGeometry x="426" y="820" width="170" height="40" as="geometry" />
        </mxCell>
        <mxCell id="MdXv1QtugfvZiQjqGfBJ-34" value="strength" style="rounded=0;whiteSpace=wrap;html=1;fontSize=15;fillColor=#b0e3e6;strokeColor=#0e8088;" parent="1" vertex="1">
          <mxGeometry x="596" y="820" width="120" height="40" as="geometry" />
        </mxCell>
        <mxCell id="MdXv1QtugfvZiQjqGfBJ-35" value="&lt;b&gt;&lt;font style=&quot;font-size: 20px;&quot;&gt;Synapses&lt;/font&gt;&lt;/b&gt;" style="text;html=1;align=center;verticalAlign=middle;resizable=0;points=[];autosize=1;strokeColor=none;fillColor=none;" parent="1" vertex="1">
          <mxGeometry x="136" y="780" width="120" height="40" as="geometry" />
        </mxCell>
        <mxCell id="MdXv1QtugfvZiQjqGfBJ-37" value="neurotransmitterID" style="rounded=0;whiteSpace=wrap;html=1;fontStyle=4;fontSize=15;fillColor=#b0e3e6;strokeColor=#0e8088;" parent="1" vertex="1">
          <mxGeometry x="20" y="920" width="140" height="40" as="geometry" />
        </mxCell>
        <mxCell id="MdXv1QtugfvZiQjqGfBJ-38" value="name" style="rounded=0;whiteSpace=wrap;html=1;fontSize=15;fillColor=#b0e3e6;strokeColor=#0e8088;" parent="1" vertex="1">
          <mxGeometry x="160" y="920" width="120" height="40" as="geometry" />
        </mxCell>
        <mxCell id="MdXv1QtugfvZiQjqGfBJ-40" value="effectType" style="rounded=0;whiteSpace=wrap;html=1;fontSize=15;fillColor=#b0e3e6;strokeColor=#0e8088;" parent="1" vertex="1">
          <mxGeometry x="280" y="920" width="120" height="40" as="geometry" />
        </mxCell>
        <mxCell id="MdXv1QtugfvZiQjqGfBJ-41" value="&lt;b&gt;&lt;font style=&quot;font-size: 20px;&quot;&gt;Neurotransmitters&lt;/font&gt;&lt;/b&gt;" style="text;html=1;align=center;verticalAlign=middle;resizable=0;points=[];autosize=1;strokeColor=none;fillColor=none;" parent="1" vertex="1">
          <mxGeometry x="10" y="880" width="200" height="40" as="geometry" />
        </mxCell>
        <mxCell id="MdXv1QtugfvZiQjqGfBJ-42" value="description" style="rounded=0;whiteSpace=wrap;html=1;fontSize=15;fillColor=#b0e3e6;strokeColor=#0e8088;" parent="1" vertex="1">
          <mxGeometry x="400" y="920" width="120" height="40" as="geometry" />
        </mxCell>
        <mxCell id="MdXv1QtugfvZiQjqGfBJ-44" value="resultID" style="rounded=0;whiteSpace=wrap;html=1;fontStyle=4;fontSize=15;fillColor=#b0e3e6;strokeColor=#0e8088;" parent="1" vertex="1">
          <mxGeometry x="80" y="550" width="120" height="40" as="geometry" />
        </mxCell>
        <mxCell id="MdXv1QtugfvZiQjqGfBJ-51" style="edgeStyle=orthogonalEdgeStyle;rounded=1;orthogonalLoop=1;jettySize=auto;html=1;exitX=0.5;exitY=0;exitDx=0;exitDy=0;entryX=0.5;entryY=1;entryDx=0;entryDy=0;curved=0;strokeWidth=2;fontSize=15;fillColor=#647687;strokeColor=#314354;" parent="1" source="MdXv1QtugfvZiQjqGfBJ-45" target="MdXv1QtugfvZiQjqGfBJ-25" edge="1">
          <mxGeometry relative="1" as="geometry">
            <Array as="points">
              <mxPoint x="260" y="510" />
              <mxPoint x="140" y="510" />
            </Array>
          </mxGeometry>
        </mxCell>
        <mxCell id="MdXv1QtugfvZiQjqGfBJ-45" value="experimentID" style="rounded=0;whiteSpace=wrap;html=1;fontSize=15;fillColor=#b0e3e6;strokeColor=#0e8088;" parent="1" vertex="1">
          <mxGeometry x="200" y="550" width="120" height="40" as="geometry" />
        </mxCell>
        <mxCell id="MdXv1QtugfvZiQjqGfBJ-46" value="resultDescription" style="rounded=0;whiteSpace=wrap;html=1;fontSize=15;fillColor=#b0e3e6;strokeColor=#0e8088;" parent="1" vertex="1">
          <mxGeometry x="320" y="550" width="130" height="40" as="geometry" />
        </mxCell>
        <mxCell id="MdXv1QtugfvZiQjqGfBJ-47" value="significanceScore" style="rounded=0;whiteSpace=wrap;html=1;fontSize=15;fillColor=#b0e3e6;strokeColor=#0e8088;" parent="1" vertex="1">
          <mxGeometry x="450" y="550" width="140" height="40" as="geometry" />
        </mxCell>
        <mxCell id="MdXv1QtugfvZiQjqGfBJ-48" value="&lt;b&gt;&lt;font style=&quot;font-size: 20px;&quot;&gt;ExperimentResults&lt;/font&gt;&lt;/b&gt;" style="text;html=1;align=center;verticalAlign=middle;resizable=0;points=[];autosize=1;strokeColor=none;fillColor=none;" parent="1" vertex="1">
          <mxGeometry x="15" y="510" width="200" height="40" as="geometry" />
        </mxCell>
        <mxCell id="MdXv1QtugfvZiQjqGfBJ-55" value="activationID" style="rounded=0;whiteSpace=wrap;html=1;fontStyle=4;fontSize=15;fillColor=#b0e3e6;strokeColor=#0e8088;" parent="1" vertex="1">
          <mxGeometry x="740" y="530" width="120" height="40" as="geometry" />
        </mxCell>
        <mxCell id="MdXv1QtugfvZiQjqGfBJ-67" style="edgeStyle=orthogonalEdgeStyle;rounded=1;orthogonalLoop=1;jettySize=auto;html=1;exitX=0.5;exitY=1;exitDx=0;exitDy=0;curved=0;fillColor=#647687;strokeWidth=2;strokeColor=#314354;" parent="1" source="MdXv1QtugfvZiQjqGfBJ-56" edge="1">
          <mxGeometry relative="1" as="geometry">
            <mxPoint x="410" y="780" as="targetPoint" />
            <Array as="points">
              <mxPoint x="920" y="800" />
              <mxPoint x="410" y="800" />
            </Array>
          </mxGeometry>
        </mxCell>
        <mxCell id="MdXv1QtugfvZiQjqGfBJ-56" value="neuronID" style="rounded=0;whiteSpace=wrap;html=1;fontSize=15;fillColor=#b0e3e6;strokeColor=#0e8088;" parent="1" vertex="1">
          <mxGeometry x="860" y="530" width="120" height="40" as="geometry" />
        </mxCell>
        <mxCell id="MdXv1QtugfvZiQjqGfBJ-68" style="edgeStyle=orthogonalEdgeStyle;rounded=1;orthogonalLoop=1;jettySize=auto;html=1;exitX=0.5;exitY=0;exitDx=0;exitDy=0;entryX=0.5;entryY=1;entryDx=0;entryDy=0;fillColor=#647687;strokeColor=#314354;strokeWidth=2;curved=0;" parent="1" target="MdXv1QtugfvZiQjqGfBJ-25" edge="1">
          <mxGeometry relative="1" as="geometry">
            <mxPoint x="1040" y="540" as="sourcePoint" />
            <mxPoint x="140" y="500" as="targetPoint" />
            <Array as="points">
              <mxPoint x="1040" y="510" />
              <mxPoint x="140" y="510" />
            </Array>
          </mxGeometry>
        </mxCell>
        <mxCell id="MdXv1QtugfvZiQjqGfBJ-57" value="experimentID" style="rounded=0;whiteSpace=wrap;html=1;fontSize=15;fillColor=#b0e3e6;strokeColor=#0e8088;" parent="1" vertex="1">
          <mxGeometry x="980" y="530" width="120" height="40" as="geometry" />
        </mxCell>
        <mxCell id="MdXv1QtugfvZiQjqGfBJ-58" value="duration" style="rounded=0;whiteSpace=wrap;html=1;fontSize=15;fillColor=#b0e3e6;strokeColor=#0e8088;" parent="1" vertex="1">
          <mxGeometry x="1100" y="530" width="120" height="40" as="geometry" />
        </mxCell>
        <mxCell id="MdXv1QtugfvZiQjqGfBJ-59" value="&lt;b&gt;&lt;font style=&quot;font-size: 20px;&quot;&gt;ActivatedNeurons&lt;/font&gt;&lt;/b&gt;" style="text;html=1;align=center;verticalAlign=middle;resizable=0;points=[];autosize=1;strokeColor=none;fillColor=none;" parent="1" vertex="1">
          <mxGeometry x="745" y="480" width="190" height="40" as="geometry" />
        </mxCell>
        <mxCell id="MdXv1QtugfvZiQjqGfBJ-61" value="emissionID" style="rounded=0;whiteSpace=wrap;html=1;fontStyle=4;fontSize=15;fillColor=#b0e3e6;strokeColor=#0e8088;" parent="1" vertex="1">
          <mxGeometry x="780" y="870" width="120" height="40" as="geometry" />
        </mxCell>
        <mxCell id="MdXv1QtugfvZiQjqGfBJ-70" style="edgeStyle=orthogonalEdgeStyle;rounded=1;orthogonalLoop=1;jettySize=auto;html=1;exitX=0.5;exitY=0;exitDx=0;exitDy=0;entryX=0.5;entryY=1;entryDx=0;entryDy=0;fillColor=#647687;strokeColor=#314354;strokeWidth=2;curved=0;" parent="1" source="MdXv1QtugfvZiQjqGfBJ-62" target="MdXv1QtugfvZiQjqGfBJ-55" edge="1">
          <mxGeometry relative="1" as="geometry">
            <Array as="points">
              <mxPoint x="960" y="830" />
              <mxPoint x="1060" y="830" />
              <mxPoint x="1060" y="610" />
              <mxPoint x="800" y="610" />
            </Array>
          </mxGeometry>
        </mxCell>
        <mxCell id="MdXv1QtugfvZiQjqGfBJ-62" value="activationID" style="rounded=0;whiteSpace=wrap;html=1;fontSize=15;fillColor=#b0e3e6;strokeColor=#0e8088;" parent="1" vertex="1">
          <mxGeometry x="900" y="870" width="120" height="40" as="geometry" />
        </mxCell>
        <mxCell id="MdXv1QtugfvZiQjqGfBJ-71" style="edgeStyle=orthogonalEdgeStyle;rounded=1;orthogonalLoop=1;jettySize=auto;html=1;exitX=0.5;exitY=1;exitDx=0;exitDy=0;entryX=0.5;entryY=1;entryDx=0;entryDy=0;fillColor=#647687;strokeColor=#314354;curved=0;strokeWidth=2;" parent="1" source="MdXv1QtugfvZiQjqGfBJ-63" target="MdXv1QtugfvZiQjqGfBJ-37" edge="1">
          <mxGeometry relative="1" as="geometry" />
        </mxCell>
        <mxCell id="MdXv1QtugfvZiQjqGfBJ-63" value="neurotransmitterID" style="rounded=0;whiteSpace=wrap;html=1;fontSize=15;fillColor=#b0e3e6;strokeColor=#0e8088;" parent="1" vertex="1">
          <mxGeometry x="1020" y="870" width="140" height="40" as="geometry" />
        </mxCell>
        <mxCell id="MdXv1QtugfvZiQjqGfBJ-64" value="concentration" style="rounded=0;whiteSpace=wrap;html=1;fontSize=15;fillColor=#b0e3e6;strokeColor=#0e8088;" parent="1" vertex="1">
          <mxGeometry x="1160" y="870" width="120" height="40" as="geometry" />
        </mxCell>
        <mxCell id="MdXv1QtugfvZiQjqGfBJ-65" value="&lt;b&gt;&lt;font style=&quot;font-size: 20px;&quot;&gt;EmittedNeurotransmitters&lt;/font&gt;&lt;/b&gt;" style="text;html=1;align=center;verticalAlign=middle;resizable=0;points=[];autosize=1;strokeColor=none;fillColor=none;" parent="1" vertex="1">
          <mxGeometry x="960" y="830" width="270" height="40" as="geometry" />
        </mxCell>
        <mxCell id="6tNcKlP2YuVENm7KCMy6-1" value="activationStrength" style="rounded=0;whiteSpace=wrap;html=1;fontSize=15;fillColor=#b0e3e6;strokeColor=#0e8088;" vertex="1" parent="1">
          <mxGeometry x="1220" y="530" width="140" height="40" as="geometry" />
        </mxCell>
      </root>
    </mxGraphModel>
  </diagram>
</mxfile>
